<svg data-v-423bf9ae="" xmlns="http://www.w3.org/2000/svg" viewBox="0 0 364 90" class="iconLeft"><!----><!----><!----><g data-v-423bf9ae="" id="2cbddb11-566a-4f89-9aa8-2c577a8c2480" fill="white" transform="matrix(5.0883901156026585,0,0,5.0883901156026585,105.37556369149613,9.817721469241562)"><path d="M10.33 8.57C10.21 8.62 10.09 8.64 10.01 8.64C9.73 8.64 9.60 8.44 9.60 8.05L9.60 7.50L9.60 1.44C9.60 0.88 8.11 0.94 7.98 1.26C7.28 2.86 6.40 4.44 5.21 5.96C3.99 4.44 3.15 2.86 2.44 1.26C2.31 0.94 0.81 0.88 0.81 1.44L0.81 9.63C0.81 10.19 2.45 10.19 2.45 9.63L2.45 4.54C3.33 6.12 4.34 7.57 4.87 7.94C5.07 8.05 5.35 8.05 5.53 7.94C6.08 7.57 7.08 6.10 7.97 4.52L7.97 7.27L7.97 8.29C7.97 9.66 8.54 10.11 9.28 10.11C9.60 10.11 9.98 10.01 10.33 9.87C10.93 9.60 10.91 8.29 10.33 8.57ZM17.65 6.23C17.65 4.38 16.63 3.37 14.59 3.37C12.46 3.37 11.35 4.66 11.35 6.66C11.35 9.04 13.08 10.04 14.80 10.04C15.58 10.04 16.32 9.83 16.97 9.42C17.36 9.17 17.36 8.02 16.84 8.25C16.13 8.57 15.51 8.75 14.92 8.75C13.94 8.75 13.03 8.27 13.01 7.28C13.38 7.34 13.80 7.36 14.18 7.36C15.95 7.36 17.65 6.89 17.65 6.23ZM13.03 6.10C13.05 5.03 13.76 4.62 14.66 4.62C15.64 4.62 16.16 5.08 16.16 5.77C16.16 5.98 15.25 6.16 14.08 6.16C13.75 6.16 13.40 6.15 13.03 6.10ZM22.69 3.43C21.60 3.46 20.79 3.88 20.26 4.54L20.05 3.68C19.95 3.29 18.62 3.28 18.62 3.81L18.62 9.63C18.62 10.19 20.27 10.19 20.27 9.63L20.27 5.94C20.92 5.25 21.57 5.04 22.39 5.00C22.88 4.98 23.21 3.42 22.69 3.43ZM23.44 6.72C23.44 8.97 24.84 10.05 26.87 10.05C27.76 10.05 28.45 9.74 28.87 9.42C29.25 9.11 29.25 7.76 28.74 8.08C28.34 8.36 27.72 8.61 27.08 8.61C26.01 8.61 25.07 8.19 25.07 6.72C25.07 5.24 26.01 4.80 27.08 4.80C27.72 4.80 28.34 5.07 28.74 5.35C29.23 5.68 29.25 4.31 28.87 3.99C28.45 3.65 27.76 3.36 26.87 3.36C24.84 3.36 23.44 4.42 23.44 6.72ZM37.34 8.48C37.21 8.54 37.11 8.57 37.02 8.57C36.74 8.57 36.60 8.37 36.60 7.97L36.60 3.78C36.60 3.22 34.96 3.22 34.96 3.78L34.96 7.64C34.36 8.34 33.75 8.61 33.19 8.61C32.35 8.61 31.89 8.15 31.89 7.13L31.89 3.54C31.89 2.88 30.27 3.58 30.27 4.24L30.27 7.70C30.27 9.16 31.12 10.04 32.52 10.04C33.47 10.04 34.36 9.70 35.04 9.00C35.22 9.76 35.69 10.04 36.25 10.04C36.60 10.04 36.96 9.94 37.34 9.80C37.93 9.53 37.90 8.22 37.34 8.48ZM42.62 3.43C41.52 3.46 40.71 3.88 40.18 4.54L39.97 3.68C39.87 3.29 38.54 3.28 38.54 3.81L38.54 9.63C38.54 10.19 40.19 10.19 40.19 9.63L40.19 5.94C40.84 5.25 41.50 5.04 42.31 5.00C42.80 4.98 43.13 3.42 42.62 3.43ZM49.06 3.82C48.54 5.26 47.92 6.72 47.24 8.11C46.33 6.59 45.74 5.38 45.25 3.84C45.04 3.21 43.29 3.22 43.51 3.84C44.21 5.81 45.16 7.64 46.47 9.60C46.31 9.90 46.16 10.18 46.00 10.46C45.61 11.14 45.26 11.42 44.87 11.42C44.69 11.42 44.49 11.37 44.28 11.24C43.71 10.92 43.58 12.26 44.07 12.53C44.44 12.71 44.80 12.81 45.16 12.81C45.89 12.81 46.61 12.40 47.24 11.33C48.71 8.82 49.90 6.34 50.78 3.82C50.99 3.23 49.25 3.22 49.06 3.82Z"></path></g><!----><g data-v-423bf9ae="" id="a22a106a-43f5-4d31-a268-b6116e035794" transform="matrix(1.0573861413295578,0,0,1.0573861413295578,-7.188253964746821,-7.431800208291008)" stroke="none" fill="white"><path d="M92.29 21.61A14.09 14.09 0 0 0 67.9 12 41.84 41.84 0 0 0 50 8a42.32 42.32 0 1 0 38 23.73 14.06 14.06 0 0 0 4.29-10.12zM78.18 10.5a11.11 11.11 0 1 1-11.11 11.11A11.12 11.12 0 0 1 78.18 10.5zm11.11 39.78a39.26 39.26 0 0 1-59.21 33.84h27.11a1 1 0 1 0 0-2H27a39.58 39.58 0 0 1-10.79-11.83h33.23a1 1 0 0 0 0-2H15.1a39 39 0 0 1-4-12.32h15.66a1 1 0 1 0 0-2H10.89c-.11-1.22-.18-2.45-.18-3.69A39.22 39.22 0 0 1 11.82 41h28.44a1 1 0 0 0 0-2h-27.9a39.2 39.2 0 0 1 6.41-12.56h27.37a1 1 0 0 0 0-2H20.41a39.26 39.26 0 0 1 43.3-11H50a1 1 0 0 0 0 2h15.51a14 14 0 0 0-1.14 9h-5.74a1 1 0 0 0 0 2H65a14.06 14.06 0 0 0 20.62 7.14 39.43 39.43 0 0 1 3.67 16.7z"></path><path d="M63.13 40a1 1 0 0 0-1-1h-15a1 1 0 0 0 0 2h15a1 1 0 0 0 1-1zM68.53 41H75a1 1 0 0 0 0-2h-6.47a1 1 0 0 0 0 2zM76.42 68.29H58.77a1 1 0 0 0 0 2h17.65a1 1 0 0 0 0-2zM59.49 55a1 1 0 0 0 1 1h3a1 1 0 0 0 0-2h-3a1 1 0 0 0-1 1zM51 54H34.51a1 1 0 0 0 0 2H51a1 1 0 0 0 0-2zM69.25 55a1 1 0 0 0 1 1h11.91a1 1 0 0 0 0-2H70.25a1 1 0 0 0-1 1z"></path></g><!----></svg>